<?xml version="1.0" encoding="UTF-8"?>
<svg version="1.1" xmlns="http://www.w3.org/2000/svg" width="604" height="297">
<path d="M0 0 C3.89603232 2.46483677 5.20240216 4.93030087 6.375 9.25 C11.19930738 37.45364312 -15.85186596 72.34456895 -31 94 C-31.6496875 94.94359375 -32.299375 95.8871875 -32.96875 96.859375 C-38.47594503 104.66875811 -44.60946109 111.90683639 -51 119 C-51.50128418 119.56009766 -52.00256836 120.12019531 -52.51904297 120.69726562 C-60.68385102 129.69467793 -69.76177751 136.38029823 -80.05712891 142.78710938 C-81.60924562 143.75606085 -83.14210822 144.7558315 -84.66796875 145.765625 C-97.59215432 154.09200296 -112.58815628 159.49404037 -127.09985352 164.3449707 C-129.07620964 165.02627142 -131.0274398 165.75852439 -132.98046875 166.50390625 C-136.96322514 168.0121002 -140.99274498 169.31117862 -145.0625 170.5625 C-146.06506836 170.87477539 -146.06506836 170.87477539 -147.08789062 171.19335938 C-149.05625597 171.80357176 -151.02733891 172.40383462 -153 173 C-154.21945312 173.36867187 -155.43890625 173.73734375 -156.6953125 174.1171875 C-159.46539939 174.85718707 -161.96748897 175.32832221 -164.8125 175.5625 C-168.02666676 175.83155766 -168.02666676 175.83155766 -171 177 C-177.24951454 178.07321682 -183.55140738 178.1596662 -189.875 178.125 C-190.78411133 178.12161621 -191.69322266 178.11823242 -192.62988281 178.11474609 C-215.02386106 177.94774279 -237.25299304 176.05769139 -259.00219727 170.5 C-260.93544155 170.01615736 -262.87983689 169.57756474 -264.82421875 169.140625 C-272.67280802 167.33124345 -279.59208706 165.07490119 -286.859375 161.50390625 C-291.04669365 159.49878476 -295.35150657 157.90757307 -299.6953125 156.27734375 C-303.10973534 154.95758457 -306.45773834 153.52688009 -309.8125 152.0625 C-327.86076401 144.27073845 -346.78860889 137.2556879 -366 133 C-366.7115625 132.81953125 -367.423125 132.6390625 -368.15625 132.453125 C-394.423572 125.9843069 -427.06474429 125.65200707 -452.4375 135.6875 C-455.6383942 136.86677681 -457.65016057 137.31404745 -461 137 C-461.37514119 132.99849395 -460.39600888 130.04200579 -458.91015625 126.3515625 C-457.88496305 123.70278007 -457.04155646 121.02118115 -456.1875 118.3125 C-453.9658671 111.61406722 -451.08752758 105.3386799 -448 99 C-447.54318848 98.05568115 -447.54318848 98.05568115 -447.07714844 97.09228516 C-440.51434905 83.56277044 -433.83877554 70.48734043 -424 59 C-423.13247106 57.95057524 -422.26667956 56.89971252 -421.40234375 55.84765625 C-405.36129056 36.43208716 -405.36129056 36.43208716 -398 34 C-398 33.34 -398 32.68 -398 32 C-396.11511025 30.47992762 -394.24894279 29.10603426 -392.25 27.75 C-391.3696106 27.14720215 -391.3696106 27.14720215 -390.47143555 26.53222656 C-385.77047441 23.38016619 -380.92480373 20.74450876 -375.80078125 18.33203125 C-373.05474229 17.06978564 -373.05474229 17.06978564 -370.73046875 15.69921875 C-358.40872607 8.72912613 -342.97916788 6.21089262 -329 6 C-328.26394531 5.98098633 -327.52789062 5.96197266 -326.76953125 5.94238281 C-316.64449822 5.69049578 -306.96162398 5.95133697 -297 8 C-295.40285156 8.309375 -295.40285156 8.309375 -293.7734375 8.625 C-281.39118343 11.22556887 -270.48885001 16.04451939 -259.4765625 22.10546875 C-256.73928949 23.59712876 -254.00357772 24.98187908 -251.1875 26.3125 C-245.42687567 29.13974109 -240.05221804 32.60903636 -234.60327148 35.98486328 C-229.99044017 38.82819805 -225.37245951 41.43935346 -220.4765625 43.76953125 C-217.29057795 45.3524731 -214.20877999 47.10400549 -211.125 48.875 C-210.52510254 49.21942139 -209.92520508 49.56384277 -209.30712891 49.91870117 C-206.52592589 51.52272112 -203.75756839 53.1445751 -201 54.7890625 C-189.995772 61.33777427 -178.63176648 67.1161113 -166.74609375 71.89453125 C-164.75947425 72.6942657 -162.80382825 73.57241094 -160.87207031 74.49682617 C-156.74080892 76.26306741 -152.74923877 76.76273495 -148.30078125 77.15625 C-147.47709549 77.23572876 -146.65340973 77.31520752 -145.80476379 77.39709473 C-135.77763637 78.29814299 -125.7354195 78.40465168 -115.67504883 78.53173828 C-96.99044646 78.78990832 -81.03190117 79.6271716 -66 92 C-63.21540451 94.99974084 -62.60679235 96.92736801 -62.6875 101 C-62.69136719 101.845625 -62.69523437 102.69125 -62.69921875 103.5625 C-63.24858133 108.0144773 -64.54692104 109.59732982 -67.94921875 112.62109375 C-76.54862574 119.26269385 -84.42795666 123.37404085 -95 126 C-95.69053467 126.17241211 -96.38106934 126.34482422 -97.0925293 126.52246094 C-125.42095325 133.25236646 -157.13027188 131.40159298 -185.3203125 125.015625 C-190.97042006 123.74942753 -196.67127374 122.83830183 -202.39135742 121.95141602 C-207.80488635 121.09755682 -207.80488635 121.09755682 -210 120 C-217.64973193 118.74902097 -225.39938922 118.87910876 -233.125 118.9375 C-234.84589844 118.94426758 -234.84589844 118.94426758 -236.6015625 118.95117188 C-239.40109813 118.96283661 -242.20051986 118.97920386 -245 119 C-243.91283691 119.11275269 -243.91283691 119.11275269 -242.80371094 119.2277832 C-239.45148175 119.5805512 -236.10080504 119.94646097 -232.75 120.3125 C-231.61046875 120.43044922 -230.4709375 120.54839844 -229.296875 120.66992188 C-222.63913917 121.40756874 -216.31212375 122.54379272 -209.84033203 124.26635742 C-205.4546316 125.3991604 -201.01764203 126.19358214 -196.5625 127 C-190.67463717 128.08960982 -184.82360637 129.22393796 -179 130.625 C-157.23136154 135.78663592 -135.0511826 136.29982067 -113 133 C-111.72898437 132.81695312 -110.45796875 132.63390625 -109.1484375 132.4453125 C-92.68336813 129.72907906 -72.70859194 125.68015595 -61 113 C-58.55531565 107.86616287 -58.41743256 102.57990379 -59 97 C-60.94680775 91.56943102 -64.26481761 87.55240082 -69.3125 84.6875 C-69.869375 84.460625 -70.42625 84.23375 -71 84 C-69.36739162 80.27087267 -66.95694486 77.28062975 -64.4375 74.125 C-53.68463905 60.34978709 -45.58222795 45.32683522 -37.875 29.6875 C-31.86011127 17.62458265 -26.40601872 6.729617 -13.69140625 0.88671875 C-9.06829297 -0.63642597 -4.77988881 -0.93284927 0 0 Z " fill="#020202" transform="translate(519,67)"/>
<path d="M0 0 C0.495 1.485 0.495 1.485 1 3 C-0.00390625 4.55078125 -0.00390625 4.55078125 -1.5625 6.3125 C-5.28176016 10.9874034 -7.31359581 16.05124367 -9.5703125 21.546875 C-12.82721105 29.41326385 -16.9193827 36.725332 -21.25390625 44.04296875 C-22.48806185 46.13302644 -23.68806842 48.24342763 -24.86328125 50.3671875 C-27.1772293 54.42536786 -29.863099 58.17496375 -32.625 61.9375 C-33.11484375 62.62134766 -33.6046875 63.30519531 -34.109375 64.00976562 C-35.35440598 65.71232849 -36.67160711 67.36164877 -38 69 C-38.66 69 -39.32 69 -40 69 C-40.33 69.99 -40.66 70.98 -41 72 C-41.66 72 -42.32 72 -43 72 C-43 72.66 -43 73.32 -43 74 C-45.64738916 75.4606285 -46.89448334 76 -50 76 C-50.34015693 71.84574302 -49.72579165 70.05162451 -47.0625 66.875 C-46.10923828 65.71484375 -46.10923828 65.71484375 -45.13671875 64.53125 C-44.43160156 63.6959375 -43.72648437 62.860625 -43 62 C-41.45585835 60.12703773 -39.91423826 58.25199406 -38.375 56.375 C-37.66085937 55.51648438 -36.94671875 54.65796875 -36.2109375 53.7734375 C-31.36883805 47.69942582 -28.0008556 42.13916059 -25.1875 34.875 C-22.27487624 27.64799984 -19.00629453 21.20906632 -14.7421875 14.671875 C-13.3155336 12.48391251 -12.07233725 10.3155117 -10.875 8 C-8.24276118 3.78841789 -5.28705286 0 0 0 Z " fill="#878787" transform="translate(489,71)"/>
<path d="M0 0 C1.32 0 2.64 0 4 0 C5.05959707 8.93088961 1.57454684 14.50133107 -3 22 C-3.86238281 23.43085937 -3.86238281 23.43085937 -4.7421875 24.890625 C-16.22268908 43.40756303 -16.22268908 43.40756303 -21 45 C-21 45.66 -21 46.32 -21 47 C-25.18272747 50.76083853 -29.93467314 53.62617965 -35.5625 54.3125 C-38.48408535 53.93793778 -39.82479699 52.93351378 -42 51 C-40.77195047 47.31585142 -40.03261709 47.27507191 -36.6875 45.5625 C-27.30574301 40.15150099 -19.53896876 31.86660115 -14.0859375 22.546875 C-13.72757812 22.03640625 -13.36921875 21.5259375 -13 21 C-12.34 21 -11.68 21 -11 21 C-10.7421875 20.31164062 -10.484375 19.62328125 -10.21875 18.9140625 C-8.83712631 15.61056483 -7.20744629 12.52219974 -5.5 9.375 C-4.58734375 7.68503906 -4.58734375 7.68503906 -3.65625 5.9609375 C-2 3 -2 3 0 0 Z " fill="#2F2F2F" transform="translate(461,89)"/>
<path d="M0 0 C18.04255319 2.04255319 18.04255319 2.04255319 20 4 C27.67289352 5.72001816 35.42629748 6.33430446 43.26171875 6.75390625 C46 7 46 7 47 8 C49.71247924 8.21367451 52.40813549 8.3773322 55.125 8.5 C70.20185353 9.20185353 70.20185353 9.20185353 72 11 C76.53564407 11.25609302 81.08299696 11.1852403 85.625 11.1875 C87.53345703 11.20586914 87.53345703 11.20586914 89.48046875 11.22460938 C95.74627142 11.2344099 101.08315453 11.06967846 107 9 C109.33215844 8.92596322 111.66860788 8.90484114 114 9 C114 8.34 114 7.68 114 7 C119.94 6.67 125.88 6.34 132 6 C128.7886563 7.60567185 126.71435845 8.39337412 123.3125 9.0625 C120.37233881 9.47713272 120.37233881 9.47713272 118 11 C116.52603261 11.20768229 115.0450874 11.36716017 113.5625 11.5 C110.15502495 11.79146944 110.15502495 11.79146944 107 13 C100.75048546 14.07321682 94.44859262 14.1596662 88.125 14.125 C87.21588867 14.12161621 86.30677734 14.11823242 85.37011719 14.11474609 C62.99755664 13.94790251 40.78059831 12.06545445 19.05053711 6.51757812 C16.95649672 5.98901929 14.85693423 5.49148552 12.75390625 5 C11.35677083 4.66666667 9.95963542 4.33333333 8.5625 4 C7.84384766 3.835 7.12519531 3.67 6.38476562 3.5 C4.57367004 3.0621903 2.78392756 2.53790984 1 2 C0.67 1.34 0.34 0.68 0 0 Z " fill="#9A9A9A" transform="translate(241,231)"/>
<path d="M0 0 C1.12865035 3.32575637 0.8691177 5.12203171 -0.375 8.375 C-1.65514162 11.91146429 -2.51962722 15.25309231 -3 19 C-1.86433594 18.53722656 -0.72867188 18.07445312 0.44140625 17.59765625 C5.61489953 15.6557433 10.81672106 14.89682407 16.25976562 14.09570312 C18.18369236 13.79066957 20.09402767 13.40225493 22 13 C22.33 12.34 22.66 11.68 23 11 C30.2265322 10.94941668 37.45301899 10.91431588 44.6796875 10.89013672 C47.13966579 10.88006017 49.59963206 10.86639869 52.05957031 10.84912109 C55.58922285 10.82494539 59.11871747 10.8135336 62.6484375 10.8046875 C64.30629776 10.78920364 64.30629776 10.78920364 65.99765015 10.77340698 C67.52901108 10.77318039 67.52901108 10.77318039 69.09130859 10.77294922 C70.44366104 10.76628738 70.44366104 10.76628738 71.82333374 10.75949097 C74 11 74 11 76 13 C78.64898236 13.77738685 81.2496931 14.45398352 83.9375 15.0625 C84.69861084 15.2387793 85.45972168 15.41505859 86.24389648 15.59667969 C92.13476451 16.91364501 97.96222614 17.73918903 104 18 C104 18.66 104 19.32 104 20 C105.485 20.12375 105.485 20.12375 107 20.25 C111.47456948 20.86308007 115.09570685 22.81968045 119 25 C117.4375 25.6875 117.4375 25.6875 115 26 C113.29685446 25.30886847 111.596011 24.60802166 109.93164062 23.828125 C106.65483671 22.42330714 103.22372342 21.75335662 99.75 21 C94.92975996 19.92009229 90.17097318 18.7971968 85.4375 17.375 C59.98139392 10.48377602 27.19705043 10.94398379 2.5625 20.6875 C-0.6383942 21.86677681 -2.65016057 22.31404745 -6 22 C-6.37941636 17.95289218 -5.3653177 14.94131655 -3.8671875 11.203125 C-2.41894088 7.52379574 -1.22652975 3.75787839 0 0 Z " fill="#454545" transform="translate(64,182)"/>
<path d="M0 0 C0.99 0.495 0.99 0.495 2 1 C-2.55918223 4.54603062 -7.12828604 6.18759797 -12.61328125 7.921875 C-16.33231977 9.10579038 -20.01083049 10.37919952 -23.6875 11.6875 C-25.45673828 12.31205078 -25.45673828 12.31205078 -27.26171875 12.94921875 C-29.87440225 13.73878979 -29.87440225 13.73878979 -31 15 C-32.51928038 15.07179964 -34.04167482 15.08392007 -35.5625 15.0625 C-36.38878906 15.05347656 -37.21507812 15.04445312 -38.06640625 15.03515625 C-38.70449219 15.02355469 -39.34257812 15.01195312 -40 15 C-40 15.66 -40 16.32 -40 17 C-41.13179688 17.06058594 -42.26359375 17.12117188 -43.4296875 17.18359375 C-44.91147145 17.26799917 -46.3932416 17.35264717 -47.875 17.4375 C-48.62136719 17.47681641 -49.36773437 17.51613281 -50.13671875 17.55664062 C-54.19986864 17.71573624 -54.19986864 17.71573624 -58 19 C-59.86259608 19.09678195 -61.72864231 19.13075842 -63.59375 19.1328125 C-65.26244141 19.13474609 -65.26244141 19.13474609 -66.96484375 19.13671875 C-68.13144531 19.13285156 -69.29804688 19.12898438 -70.5 19.125 C-71.66660156 19.12886719 -72.83320313 19.13273437 -74.03515625 19.13671875 C-75.14761719 19.13542969 -76.26007813 19.13414062 -77.40625 19.1328125 C-78.43041016 19.13168457 -79.45457031 19.13055664 -80.50976562 19.12939453 C-83 19 -83 19 -85 18 C-85 17.34 -85 16.68 -85 16 C-86.11375 16.020625 -87.2275 16.04125 -88.375 16.0625 C-92 16 -92 16 -94 15 C-95.68544926 14.86670436 -97.37374396 14.76880187 -99.0625 14.6875 C-107.25550185 14.08874225 -115.0648061 12.02140603 -123 10 C-123 9.67 -123 9.34 -123 9 C-117.16738907 8.59307366 -112.11848619 9.83081342 -106.4609375 11.203125 C-85.58514789 16.00974021 -64.09653262 16.15696331 -43 13 C-41.09347656 12.72542969 -41.09347656 12.72542969 -39.1484375 12.4453125 C-30.97445176 11.09685457 -23.2071292 8.98427857 -15.3125 6.5 C-14.36737549 6.20327393 -13.42225098 5.90654785 -12.44848633 5.60083008 C-7.90846082 4.12320535 -4.08084167 2.51128718 0 0 Z " fill="#858585" transform="translate(449,187)"/>
<path d="M0 0 C0.33 0.99 0.66 1.98 1 3 C-0.00390625 4.55078125 -0.00390625 4.55078125 -1.5625 6.3125 C-5.27390959 10.97753566 -7.30318539 16.0292509 -9.55859375 21.51171875 C-10.84047959 24.61395195 -12.1757101 27.66038989 -13.625 30.6875 C-13.98851562 31.45449219 -14.35203125 32.22148438 -14.7265625 33.01171875 C-16.1882287 35.29389083 -17.80448529 36.44447338 -20 38 C-21.2516467 40.08334635 -21.2516467 40.08334635 -22 42 C-22.66 41.67 -23.32 41.34 -24 41 C-24 40.01 -24 39.02 -24 38 C-23.34 38 -22.68 38 -22 38 C-22.0825 37.21625 -22.165 36.4325 -22.25 35.625 C-21.90241642 30.58503808 -20.01626605 26.58874342 -18 22 C-17.68804687 21.23171875 -17.37609375 20.4634375 -17.0546875 19.671875 C-8.86953671 0 -8.86953671 0 0 0 Z " fill="#131313" transform="translate(489,71)"/>
<path d="M0 0 C1.32 0 2.64 0 4 0 C5.49376919 12.59034034 -3.3565141 22.93610552 -10 33 C-10.43828125 33.66515625 -10.8765625 34.3303125 -11.328125 35.015625 C-12.2122717 36.34807144 -13.1047306 37.67500128 -14 39 C-15 36 -15 36 -14.22265625 34.17578125 C-13.1484375 32.45052083 -12.07421875 30.72526042 -11 29 C-10.34 29 -9.68 29 -9 29 C-7.11608215 25.73454239 -6.50712033 22.71888239 -6 19 C-6.61875 19.66 -7.2375 20.32 -7.875 21 C-10 23 -10 23 -12 23 C-12.33 24.32 -12.66 25.64 -13 27 C-13.33 26.67 -13.66 26.34 -14 26 C-14.31710937 26.46148437 -14.63421875 26.92296875 -14.9609375 27.3984375 C-19.36925952 33.56034619 -24.55624181 38.74989329 -30 44 C-30.66 43.67 -31.32 43.34 -32 43 C-31.13117188 42.16597656 -30.26234375 41.33195312 -29.3671875 40.47265625 C-20.85818627 32.19896531 -20.85818627 32.19896531 -14.05078125 22.51171875 C-13.70402344 22.01285156 -13.35726563 21.51398438 -13 21 C-12.34 21 -11.68 21 -11 21 C-10.7421875 20.31164062 -10.484375 19.62328125 -10.21875 18.9140625 C-8.83712631 15.61056483 -7.20744629 12.52219974 -5.5 9.375 C-4.58734375 7.68503906 -4.58734375 7.68503906 -3.65625 5.9609375 C-2 3 -2 3 0 0 Z " fill="#7A7A7A" transform="translate(461,89)"/>
<path d="M0 0 C0 0.66 0 1.32 0 2 C0.6290625 1.97679687 1.258125 1.95359375 1.90625 1.9296875 C7.67016398 1.80815919 12.47263742 2.36226294 18 4 C18 4.33 18 4.66 18 5 C10.25 5.125 10.25 5.125 8 4 C0.35026807 2.74902097 -7.39938922 2.87910876 -15.125 2.9375 C-16.27226562 2.94201172 -17.41953125 2.94652344 -18.6015625 2.95117188 C-21.40109813 2.96283661 -24.20051986 2.97920386 -27 3 C-25.91283691 3.11275269 -25.91283691 3.11275269 -24.80371094 3.2277832 C-21.45148175 3.5805512 -18.10080504 3.94646097 -14.75 4.3125 C-13.61046875 4.43044922 -12.4709375 4.54839844 -11.296875 4.66992188 C-3.64820262 5.51736001 3.57358842 7.01614908 11 9 C13.57722401 9.59842403 16.16033085 10.14366948 18.75 10.6875 C19.94109375 10.93886719 21.1321875 11.19023437 22.359375 11.44921875 C23.23078125 11.63097656 24.1021875 11.81273437 25 12 C25 12.33 25 12.66 25 13 C18.73 12.67 12.46 12.34 6 12 C6 11.34 6 10.68 6 10 C-9.80414815 5.69931367 -26.74965794 6.86661545 -43 7 C-43 6.01 -43 5.02 -43 4 C-38.49877778 2.34165497 -34.12294819 1.42143762 -29.375 0.875 C-28.65513916 0.79008301 -27.93527832 0.70516602 -27.19360352 0.61767578 C-18.14709694 -0.34047313 -9.08318102 -0.16907679 0 0 Z " fill="#8F8F8F" transform="translate(301,183)"/>
<path d="M0 0 C0.20086443 3.71599191 0.1519437 4.77208445 -2 8 C-2.66 8 -3.32 8 -4 8 C-4 8.66 -4 9.32 -4 10 C-7.70416126 12.37590142 -10.92984573 12.20500286 -15.25 12.125 C-16.51328125 12.10695312 -17.7765625 12.08890625 -19.078125 12.0703125 C-20.04234375 12.04710937 -21.0065625 12.02390625 -22 12 C-22 10.35 -22 8.7 -22 7 C-20.91332031 6.51080078 -20.91332031 6.51080078 -19.8046875 6.01171875 C-18.83789062 5.57472656 -17.87109375 5.13773438 -16.875 4.6875 C-15.86953125 4.23503906 -14.8640625 3.78257812 -13.828125 3.31640625 C-11.71999718 2.33513681 -9.65769155 1.25427308 -7.625 0.125 C-4.579652 -1.18014914 -3.10937723 -1.00597499 0 0 Z " fill="#4D4D4D" transform="translate(415,131)"/>
<path d="M0 0 C7.84588382 2.48452988 15.62808916 5.31404458 23 9 C25.79763617 9.39616517 28.57788214 9.73767649 31.38671875 10.03125 C32.2329631 10.1197522 33.07920746 10.20825439 33.95109558 10.29943848 C44.06299503 11.28906341 54.17298064 11.40349456 64.32495117 11.53173828 C92.85438925 11.925937 92.85438925 11.925937 104 18 C100.60381958 19.13206014 100.25575195 18.91274325 97.125 17.625 C92.00034905 15.76456566 87.04039631 15.47418593 81.625 15.2109375 C79 15 79 15 78 14 C76.52411324 13.8879341 75.04302757 13.8432742 73.56298828 13.82641602 C72.61755157 13.81292618 71.67211487 13.79943634 70.69802856 13.78553772 C69.14980911 13.76988014 69.14980911 13.76988014 67.5703125 13.75390625 C65.39062154 13.72093083 63.21093414 13.68771988 61.03125 13.65429688 C57.59084871 13.60713797 54.15045779 13.56279302 50.70996094 13.52319336 C47.39241239 13.48310431 44.07518141 13.43161124 40.7578125 13.37890625 C39.74590851 13.3704921 38.73400452 13.36207794 37.69143677 13.35340881 C30.95079756 13.23858538 24.59267411 12.4032261 18 11 C18 10.34 18 9.68 18 9 C15.525 8.505 15.525 8.505 13 8 C13 7.34 13 6.68 13 6 C11.96875 5.896875 10.9375 5.79375 9.875 5.6875 C6.04916055 5.00872203 3.36629975 3.88841205 0 2 C0 1.34 0 0.68 0 0 Z " fill="#A6A6A6" transform="translate(339,134)"/>
<path d="M0 0 C0.66 0 1.32 0 2 0 C2 0.99 2 1.98 2 3 C1.01 3 0.02 3 -1 3 C-1.1551709 3.88643188 -1.1551709 3.88643188 -1.31347656 4.79077148 C-2.11085914 7.35674409 -3.08972182 8.46328198 -4.984375 10.34765625 C-5.89316406 11.25547852 -5.89316406 11.25547852 -6.8203125 12.18164062 C-7.77550781 13.11266602 -7.77550781 13.11266602 -8.75 14.0625 C-9.37132813 14.68705078 -9.99265625 15.31160156 -10.6328125 15.95507812 C-13.89975442 19.18411249 -16.96787581 21.74486505 -21 24 C-24.60700835 27.78295998 -26.85756612 31.37228583 -28.91015625 36.16796875 C-30 38 -30 38 -31.94921875 39.4140625 C-34.49509717 41.38287514 -35.39438402 43.28798805 -36.75 46.1875 C-37.17796875 47.08855469 -37.6059375 47.98960937 -38.046875 48.91796875 C-38.36140625 49.60503906 -38.6759375 50.29210937 -39 51 C-39.66 51 -40.32 51 -41 51 C-39.54814143 45.63479851 -37.02978218 41.67117286 -33.875 37.1875 C-33.38290039 36.48044922 -32.89080078 35.77339844 -32.38378906 35.04492188 C-28.59900426 29.68170698 -24.49984127 24.77867758 -20 20 C-18.82867209 18.64986319 -17.66194538 17.29571994 -16.5 15.9375 C-14.01678239 13.10844615 -11.48509666 10.33774091 -8.875 7.625 C-8.25367188 6.97789063 -7.63234375 6.33078125 -6.9921875 5.6640625 C-4.77738077 3.81404747 -2.71629827 2.93049664 0 2 C0 1.34 0 0.68 0 0 Z " fill="#5A5A5A" transform="translate(121,99)"/>
<path d="M0 0 C3.89603232 2.46483677 5.20240216 4.93030087 6.375 9.25 C8.98008417 24.47972282 0.89176658 38.96920833 -6 52 C-7 50 -7 50 -6.29296875 47.7578125 C-5.92816406 46.88898438 -5.56335938 46.02015625 -5.1875 45.125 C-4.83042969 44.26132813 -4.47335937 43.39765625 -4.10546875 42.5078125 C-3.41906437 40.95066899 -2.68906715 39.41109538 -1.89453125 37.90625 C-0.78886446 35.79553997 -0.78886446 35.79553997 -0.5 32.375 C0 29 0 29 2 27 C3.16743126 19.29871959 3.88524487 11.35737442 1 4 C-2.68897839 1.54068107 -5.71481973 1.411838 -10 2 C-11.68991979 2.9601817 -13.36209288 3.95355934 -15 5 C-17.140625 4.58984375 -17.140625 4.58984375 -19 4 C-12.70805239 0.20108824 -7.36543406 -1.29299156 0 0 Z " fill="#737373" transform="translate(519,67)"/>
<path d="M0 0 C18.04255319 2.04255319 18.04255319 2.04255319 20 4 C27.67289352 5.72001816 35.42629748 6.33430446 43.26171875 6.75390625 C46 7 46 7 47 8 C49.71247924 8.21367451 52.40813549 8.3773322 55.125 8.5 C65.95533991 9.004171 65.95533991 9.004171 71 10 C71.495 10.99 71.495 10.99 72 12 C63.28663953 12.19514458 54.6972229 11.70417969 46.02709961 10.88305664 C43.93753073 10.68750288 41.84695781 10.50843436 39.75585938 10.33007812 C31.87495281 9.62022348 24.56653059 8.29539608 17 6 C15.49005919 5.62160481 13.97710558 5.25496046 12.4609375 4.90234375 C11.77902344 4.74056641 11.09710938 4.57878906 10.39453125 4.41210938 C9.01028009 4.08679697 7.62478465 3.76674715 6.23828125 3.45117188 C4.47640656 3.02852564 2.7352134 2.5214084 1 2 C0.67 1.34 0.34 0.68 0 0 Z " fill="#3C3C3C" transform="translate(241,231)"/>
<path d="M0 0 C1.12865035 3.32575637 0.8691177 5.12203171 -0.375 8.375 C-1.65514162 11.91146429 -2.51962722 15.25309231 -3 19 C-1.2984375 18.319375 -1.2984375 18.319375 0.4375 17.625 C16.06405413 11.37437835 34.00952969 11.80388221 50.5625 11.75 C51.31039795 11.74482361 52.0582959 11.73964722 52.82885742 11.73431396 C54.97073543 11.72261582 57.1120238 11.72576304 59.25390625 11.734375 C60.50502197 11.73663086 61.7561377 11.73888672 63.04516602 11.74121094 C66 12 66 12 68 14 C67.04859131 13.98952637 66.09718262 13.97905273 65.11694336 13.96826172 C61.51053794 13.93144203 57.90414823 13.90887979 54.29760742 13.89013672 C52.75102932 13.88021763 51.20446924 13.86667813 49.65795898 13.84912109 C33.63323486 13.67205232 17.64229131 14.72310493 2.5625 20.6875 C-0.6383942 21.86677681 -2.65016057 22.31404745 -6 22 C-6.37941636 17.95289218 -5.3653177 14.94131655 -3.8671875 11.203125 C-2.41894088 7.52379574 -1.22652975 3.75787839 0 0 Z " fill="#A4A4A4" transform="translate(64,182)"/>
<path d="M0 0 C5.94 0.33 11.88 0.66 18 1 C18 1.66 18 2.32 18 3 C31.46771044 5.03112213 44.90294717 5.6186498 58.5 6.125 C60.69143086 6.2116191 62.88283746 6.29885445 65.07421875 6.38671875 C70.38255419 6.59823828 75.69113661 6.80219797 81 7 C81 7.33 81 7.66 81 8 C58.46971616 11.92240318 34.07108263 8.55301841 12 3.45507812 C9.28055818 2.83629888 6.54892071 2.28806025 3.8125 1.75 C1.9253125 1.37875 1.9253125 1.37875 0 1 C0 0.67 0 0.34 0 0 Z " fill="#9E9E9E" transform="translate(319,188)"/>
<path d="M0 0 C10.11492427 -0.2497767 19.80196644 0.00643779 29.75195312 2.06201172 C30.94433594 2.30306641 32.13671875 2.54412109 33.36523438 2.79248047 C42.4351878 4.7452464 42.4351878 4.7452464 44.75195312 7.06201172 C39.73694546 6.64409441 35.20773454 5.95123759 30.37695312 4.53857422 C23.06558276 2.67824163 16.01068895 2.6495917 8.50195312 2.74951172 C7.12605883 2.75883933 5.75016363 2.76803445 4.37426758 2.77709961 C-10.80007097 2.38578556 -10.80007097 2.38578556 -25.24804688 6.06201172 C-27.58103348 6.10223563 -29.91511353 6.10521419 -32.24804688 6.06201172 C-32.24804688 5.73201172 -32.24804688 5.40201172 -32.24804688 5.06201172 C-21.40731147 2.03505313 -11.2991066 0.31168257 0 0 Z " fill="#9C9C9C" transform="translate(192.248046875,72.93798828125)"/>
<path d="M0 0 C0.91330078 0.00451172 1.82660156 0.00902344 2.76757812 0.01367188 C4.99095738 0.0253126 7.21419121 0.04166149 9.4375 0.0625 C9.4375 0.7225 9.4375 1.3825 9.4375 2.0625 C10.0665625 2.03929687 10.695625 2.01609375 11.34375 1.9921875 C17.10766398 1.87065919 21.91013742 2.42476294 27.4375 4.0625 C27.4375 4.3925 27.4375 4.7225 27.4375 5.0625 C19.6875 5.1875 19.6875 5.1875 17.4375 4.0625 C9.78776807 2.81152097 2.03811078 2.94160876 -5.6875 3 C-6.83476562 3.00451172 -7.98203125 3.00902344 -9.1640625 3.01367188 C-11.96356468 3.02533647 -14.76303959 3.04326707 -17.5625 3.0625 C-12.2825 3.7225 -7.0025 4.3825 -1.5625 5.0625 C-1.5625 5.3925 -1.5625 5.7225 -1.5625 6.0625 C-5.02150478 5.9529307 -8.47939109 5.82223152 -11.9375 5.6875 C-12.92234375 5.6565625 -13.9071875 5.625625 -14.921875 5.59375 C-16.33339844 5.53574219 -16.33339844 5.53574219 -17.7734375 5.4765625 C-18.64274902 5.4451416 -19.51206055 5.4137207 -20.40771484 5.38134766 C-22.5625 5.0625 -22.5625 5.0625 -24.5625 3.0625 C-16.98540035 -0.60383854 -8.22817874 -0.07847859 0 0 Z " fill="#A4A4A4" transform="translate(291.5625,182.9375)"/>
<path d="M0 0 C0.495 0.99 0.495 0.99 1 2 C-8.60464129 9.77907827 -16.96331721 14.92084859 -29 18 C-30.22976563 18.36351562 -30.22976563 18.36351562 -31.484375 18.734375 C-37.90221183 20.4676594 -44.39969367 20.18362521 -51 20 C-51 19.67 -51 19.34 -51 19 C-48.81347261 18.66034526 -46.62571975 18.32857523 -44.4375 18 C-43.21933594 17.814375 -42.00117188 17.62875 -40.74609375 17.4375 C-37.12372152 17.01444923 -33.64287954 16.92498575 -30 17 C-29.67 16.01 -29.34 15.02 -29 14 C-27.865625 13.87625 -26.73125 13.7525 -25.5625 13.625 C-24.386875 13.41875 -23.21125 13.2125 -22 13 C-21.67 12.34 -21.34 11.68 -21 11 C-19.07421875 10.4375 -19.07421875 10.4375 -16.6875 10 C-13.45997456 9.40250769 -10.88319198 8.58344639 -8 7 C-8 6.34 -8 5.68 -8 5 C-6.25 3.7109375 -6.25 3.7109375 -4 2.375 C-3.2575 1.92898437 -2.515 1.48296875 -1.75 1.0234375 C-1.1725 0.68570313 -0.595 0.34796875 0 0 Z " fill="#A0A0A0" transform="translate(453,175)"/>
<path d="M0 0 C0.33 0.99 0.66 1.98 1 3 C-0.00390625 4.55078125 -0.00390625 4.55078125 -1.5625 6.3125 C-5.2719449 10.97506615 -7.3024148 16.02166889 -9.55078125 21.50390625 C-14.9217759 34.46088795 -14.9217759 34.46088795 -18 36 C-17.20499956 32.38716467 -15.9423662 29.01559625 -14.625 25.5625 C-14.20476562 24.45003906 -13.78453125 23.33757812 -13.3515625 22.19140625 C-11.39118471 17.56242171 -8.73271437 13.53565157 -5.9375 9.375 C-5.43089844 8.61960937 -4.92429687 7.86421875 -4.40234375 7.0859375 C-3.93957031 6.39757812 -3.47679687 5.70921875 -3 5 C-2.34 4.01 -1.68 3.02 -1 2 C-6.39756398 4.84871433 -9.21141714 8.50340061 -12.125 13.75 C-14 17 -14 17 -16 18 C-13.43588112 11.10969003 -8.38963093 0 0 0 Z " fill="#999999" transform="translate(489,71)"/>
<path d="M0 0 C0.33 0.99 0.66 1.98 1 3 C0.02367865 4.68064702 -0.98040529 6.34524793 -2 8 C-2.63520612 10.0833715 -3.19774363 12.19022238 -3.6875 14.3125 C-3.93886719 15.38113281 -4.19023437 16.44976562 -4.44921875 17.55078125 C-4.63097656 18.35902344 -4.81273437 19.16726562 -5 20 C-5.66 20 -6.32 20 -7 20 C-6.34 20.99 -5.68 21.98 -5 23 C-4.01 21.35 -3.02 19.7 -2 18 C-1.67 18.66 -1.34 19.32 -1 20 C-2.78515145 24.47988006 -4.90963595 28.2003997 -8.8125 31.0625 C-9.8953125 31.5265625 -9.8953125 31.5265625 -11 32 C-11.6875 30.3125 -11.6875 30.3125 -12 28 C-11.02065076 26.32111559 -10.01656081 24.65661761 -9 23 C-8.54153436 21.13338988 -8.08632496 19.2657566 -7.6640625 17.390625 C-5.98056162 11.33002183 -3.4885942 5.2328913 0 0 Z " fill="#454545" transform="translate(472,89)"/>
<path d="M0 0 C7.80191357 -0.33976075 14.53820967 0.14096727 22.0546875 2.265625 C26.65254663 3.4120408 31.28022589 3.73056408 36 4 C36 4.66 36 5.32 36 6 C36.99 6.0825 37.98 6.165 39 6.25 C43.47456948 6.86308007 47.09570685 8.81968045 51 11 C49.4375 11.6875 49.4375 11.6875 47 12 C45.29685446 11.30886847 43.596011 10.60802166 41.93164062 9.828125 C38.65484786 8.42331192 35.2237276 7.75330523 31.75 7 C26.84593392 5.90180644 22.0059619 4.75032342 17.1875 3.3125 C11.52610669 1.7098902 5.85825576 1.29649113 0 1 C0 0.67 0 0.34 0 0 Z " fill="#A8A8A8" transform="translate(132,196)"/>
<path d="M0 0 C5.54330709 0.75590551 5.54330709 0.75590551 7.8125 1.96875 C10.59353431 3.27980903 13.21534768 3.66320508 16.25 4.125 C17.86648437 4.37636719 17.86648437 4.37636719 19.515625 4.6328125 C20.74539062 4.81457031 20.74539062 4.81457031 22 5 C22 5.99 22 6.98 22 8 C22.64066406 8.18175781 23.28132813 8.36351562 23.94140625 8.55078125 C29.13481682 10.06004363 34.13588856 11.61969015 39 14 C39.495 14.99 39.495 14.99 40 16 C35.43207681 15.31702896 31.40325644 13.61554068 27.1875 11.8125 C20.5228379 9.003524 13.81673425 6.37968507 7.00268555 3.9543457 C4.14021104 2.91361263 2.18202809 2.18202809 0 0 Z " fill="#848484" transform="translate(184,208)"/>
<path d="M0 0 C0.72084778 0.16109253 1.44169556 0.32218506 2.18438721 0.48815918 C4.8681015 0.97602261 7.32660206 1.14961419 10.04980469 1.18945312 C11.02721619 1.20617065 12.00462769 1.22288818 13.01165771 1.2401123 C14.57596527 1.26047546 14.57596527 1.26047546 16.171875 1.28125 C17.78911469 1.30886414 17.78911469 1.30886414 19.43902588 1.33703613 C24.04730397 1.41566743 28.65572218 1.48373104 33.26416016 1.55224609 C36.62930923 1.60379933 39.99432598 1.6610876 43.359375 1.71875 C44.93582794 1.73911316 44.93582794 1.73911316 46.54412842 1.7598877 C47.9913327 1.78496399 47.9913327 1.78496399 49.46777344 1.81054688 C50.32095154 1.82307495 51.17412964 1.83560303 52.05316162 1.84851074 C54 2 54 2 55 3 C57.18292774 3.23481693 59.37203174 3.41363323 61.5625 3.5625 C63.35880859 3.68818359 63.35880859 3.68818359 65.19140625 3.81640625 C66.11824219 3.87699219 67.04507813 3.93757812 68 4 C68 4.33 68 4.66 68 5 C65.54159395 5.02691685 63.08348118 5.04679802 60.625 5.0625 C59.92632812 5.07087891 59.22765625 5.07925781 58.5078125 5.08789062 C53.2265625 5.11328125 53.2265625 5.11328125 51 4 C49.43807534 3.89671055 47.87193216 3.85410788 46.30664062 3.84228516 C45.33223022 3.83202301 44.35781982 3.82176086 43.35388184 3.81118774 C42.29866333 3.80388641 41.24344482 3.79658508 40.15625 3.7890625 C37.93879457 3.76100417 35.72134674 3.73233979 33.50390625 3.703125 C29.99463022 3.66176409 26.48549767 3.62489149 22.97607422 3.59863281 C19.59833217 3.57114452 16.22124332 3.52528301 12.84375 3.4765625 C11.26092224 3.4716832 11.26092224 3.4716832 9.64611816 3.46670532 C8.67170776 3.45013885 7.69729736 3.43357239 6.69335938 3.41650391 C5.83335327 3.40841705 4.97334717 3.4003302 4.08728027 3.39199829 C3.39847778 3.26263885 2.70967529 3.13327942 2 3 C1.34 2.01 0.68 1.02 0 0 Z " fill="#212121" transform="translate(363,145)"/>
<path d="M0 0 C0 3.97613726 -1.8247763 6.28708828 -3.9375 9.5 C-4.34137939 10.12076416 -4.74525879 10.74152832 -5.16137695 11.38110352 C-9.0486359 17.25302537 -13.40577403 22.66587996 -18 28 C-18.62648438 28.73734375 -19.25296875 29.4746875 -19.8984375 30.234375 C-21.25767511 31.82972431 -22.62735148 33.41617478 -24 35 C-24.495 33.515 -24.495 33.515 -25 32 C-24.34 32 -23.68 32 -23 32 C-22.73058594 31.41089844 -22.46117187 30.82179687 -22.18359375 30.21484375 C-21.00492673 28.00921933 -19.73777121 26.40828228 -18.0625 24.5625 C-16.31053098 22.63130141 -14.90128008 20.83493173 -13.55859375 18.58984375 C-11.36018204 14.93684384 -8.64601316 11.78304625 -5.9375 8.5 C-4.07048011 6.09094208 -2.53377184 3.62932315 -1 1 C-0.67 0.67 -0.34 0.34 0 0 Z " fill="#888888" transform="translate(493,150)"/>
<path d="M0 0 C0.796875 1.609375 0.796875 1.609375 1 4 C-0.50785217 6.29146039 -1.95976349 8.20541295 -3.75 10.25 C-4.20632813 10.80429688 -4.66265625 11.35859375 -5.1328125 11.9296875 C-6.34671812 13.35409698 -7.6684053 14.68494685 -9 16 C-9.99 16 -10.98 16 -12 16 C-14.15028304 16.94978897 -14.15028304 16.94978897 -16 18 C-11.68575192 11.09720307 -6.62242176 4.81630674 0 0 Z " fill="#121212" transform="translate(458,123)"/>
<path d="M0 0 C0 3.51767775 -0.42487123 3.76453166 -2.75 6.1875 C-5.57408973 9.30990906 -7.32048878 12.3344971 -8.9453125 16.203125 C-10 18 -10 18 -11.9453125 19.41015625 C-14.49299017 21.38145817 -15.39313271 23.28531163 -16.75 26.1875 C-17.17796875 27.08855469 -17.6059375 27.98960937 -18.046875 28.91796875 C-18.36140625 29.60503906 -18.6759375 30.29210937 -19 31 C-19.66 31 -20.32 31 -21 31 C-19.54806429 25.63451342 -17.02940841 21.67168186 -13.875 17.1875 C-13.38797607 16.48625 -12.90095215 15.785 -12.39916992 15.0625 C-8.62417473 9.70484163 -4.56623414 4.71015556 0 0 Z " fill="#9F9F9F" transform="translate(101,119)"/>
<path d="M0 0 C1 3 1 3 -0.40625 6.265625 C-1.09498693 7.59853352 -1.7935688 8.92638425 -2.5 10.25 C-3.24140066 11.6813518 -3.98093853 13.11366979 -4.71875 14.546875 C-5.09773438 15.27970703 -5.47671875 16.01253906 -5.8671875 16.76757812 C-7.66264909 20.30587571 -9.33610671 23.89838612 -11 27.5 C-11.30228516 28.15258789 -11.60457031 28.80517578 -11.91601562 29.47753906 C-12.61261987 30.98412927 -13.30662937 32.49191887 -14 34 C-14.66 34 -15.32 34 -16 34 C-16 34.99 -16 35.98 -16 37 C-16.99 37 -17.98 37 -19 37 C-17.28711096 32.22094493 -14.81086763 27.96048372 -12.3125 23.5625 C-7.95739589 15.82097347 -3.87953898 7.99030877 0 0 Z " fill="#939393" transform="translate(483,93)"/>
<path d="M0 0 C-3.99443961 2.06854908 -7.87698197 4.01565393 -12.125 5.5 C-16.49408515 7.08411274 -19.98078276 9.51433447 -23.71484375 12.26171875 C-27.3333735 14.89841548 -30.84059331 17.25885301 -35 19 C-35.66 18.67 -36.32 18.34 -37 18 C-30.60658506 13.04132779 -24.25213006 8.85479564 -16.93359375 5.390625 C-13.26938356 3.65366251 -9.71633274 1.72540134 -6.15625 -0.21484375 C-3.64744967 -1.12837431 -2.4703353 -0.90391814 0 0 Z " fill="#A7A7A7" transform="translate(160,80)"/>
<path d="M0 0 C18.04255319 2.04255319 18.04255319 2.04255319 20 4 C22.0587768 4.27953219 24.11728432 4.44734351 26.1875 4.62109375 C27.0846875 4.80865234 27.0846875 4.80865234 28 5 C28.33 5.66 28.66 6.32 29 7 C30.89533342 7.46523063 30.89533342 7.46523063 33.0625 7.625 C34.361875 7.74875 35.66125 7.8725 37 8 C37 8.33 37 8.66 37 9 C30.90405124 9.29980076 26.02431856 8.67648466 20.19140625 6.92578125 C17.72309239 6.20975875 15.27618369 5.57128623 12.77734375 4.98046875 C12.04974854 4.80741211 11.32215332 4.63435547 10.57250977 4.45605469 C9.12248061 4.11388583 7.67115106 3.77717575 6.21850586 3.44628906 C4.46320343 3.02534094 2.72871345 2.51945526 1 2 C0.67 1.34 0.34 0.68 0 0 Z " fill="#959595" transform="translate(241,231)"/>
<path d="M0 0 C0.33 0.33 0.66 0.66 1 1 C2.55753051 1.22670908 4.12377359 1.39435092 5.69140625 1.53515625 C6.63564453 1.62216797 7.57988281 1.70917969 8.55273438 1.79882812 C9.54595703 1.88583984 10.53917969 1.97285156 11.5625 2.0625 C12.55958984 2.15337891 13.55667969 2.24425781 14.58398438 2.33789062 C17.05565702 2.56258814 19.52763256 2.78310351 22 3 C22 3.33 22 3.66 22 4 C11.44 4 0.88 4 -10 4 C-10 3.01 -10 2.02 -10 1 C-3.60763521 -1.46977731 -3.60763521 -1.46977731 0 0 Z " fill="#4D4D4D" transform="translate(268,186)"/>
<path d="M0 0 C0.66 0.33 1.32 0.66 2 1 C-2.67439205 4.63563826 -7.4219679 6.29705755 -13.0546875 8.0546875 C-15.4513162 8.82389724 -17.69366029 9.69355443 -20 10.6875 C-25.1111053 12.67996478 -30.57389906 12.73773845 -36 13 C-33.36895512 10.36895512 -31.45952751 10.35921241 -27.8125 9.6875 C-19.18101221 7.93450712 -9.75290322 5.90859168 -2.19140625 1.28125 C-1.46824219 0.8584375 -0.74507813 0.435625 0 0 Z " fill="#A6A6A6" transform="translate(449,187)"/>
<path d="M0 0 C0.75 1.625 0.75 1.625 1 4 C0.03799561 5.42099995 -0.92678796 6.84023527 -1.90869141 8.24755859 C-3.80508331 11.29281611 -4.88606778 14.62608119 -6.0625 18 C-7.77867201 22.84351994 -9.5980743 27.43847938 -12 32 C-12.66 32 -13.32 32 -14 32 C-12.12781328 23.91142631 -8.32163947 16.41933869 -4.8125 8.9375 C-4.45534912 8.17477783 -4.09819824 7.41205566 -3.73022461 6.6262207 C-1.12680985 1.12680985 -1.12680985 1.12680985 0 0 Z " fill="#989898" transform="translate(79,150)"/>
<path d="M0 0 C6.21719614 1.96877878 12.20045052 4.26765161 18.203125 6.81640625 C20.7898199 7.91105507 23.38859785 8.96592287 26 10 C26 10.33 26 10.66 26 11 C23.36 11 20.72 11 18 11 C18 10.34 18 9.68 18 9 C15.525 8.505 15.525 8.505 13 8 C13 7.34 13 6.68 13 6 C11.96875 5.896875 10.9375 5.79375 9.875 5.6875 C6.04916055 5.00872203 3.36629975 3.88841205 0 2 C0 1.34 0 0.68 0 0 Z " fill="#9F9F9F" transform="translate(339,134)"/>
<path d="M0 0 C1.6396875 0.0928125 1.6396875 0.0928125 3.3125 0.1875 C2.02702452 2.75845097 1.10252275 2.84590941 -1.546875 3.84375 C-2.72636719 4.29427734 -2.72636719 4.29427734 -3.9296875 4.75390625 C-5.17105469 5.21603516 -5.17105469 5.21603516 -6.4375 5.6875 C-8.05732183 6.30200384 -9.67711428 6.9165851 -11.296875 7.53125 C-12.06169189 7.81758301 -12.82650879 8.10391602 -13.61450195 8.39892578 C-15.28507818 9.03441762 -16.94029668 9.71020117 -18.58984375 10.3984375 C-21.05994395 11.32759996 -23.07012656 11.3370642 -25.6875 11.1875 C-21.601072 8.46321466 -17.10149024 7.08974216 -12.4921875 5.48632812 C-8.48291257 4.13520601 -8.48291257 4.13520601 -5.1875 1.60327148 C-3.6875 0.1875 -3.6875 0.1875 0 0 Z " fill="#929292" transform="translate(409.6875,221.8125)"/>
<path d="M0 0 C0.125 2.875 0.125 2.875 0 6 C-0.66 6.66 -1.32 7.32 -2 8 C-2.28875 8.845625 -2.5775 9.69125 -2.875 10.5625 C-3.24625 11.366875 -3.6175 12.17125 -4 13 C-6.0703125 13.65234375 -6.0703125 13.65234375 -8 14 C-7.57709963 12.03846209 -7.13618382 10.08080125 -6.6875 8.125 C-6.44386719 7.03445312 -6.20023437 5.94390625 -5.94921875 4.8203125 C-4.84109427 1.52786034 -3.66672761 0 0 0 Z " fill="#060606" transform="translate(464,90)"/>
<path d="M0 0 C6.07092063 1.32306102 11.34762073 3.30984014 16.9375 6 C17.70384766 6.35578125 18.47019531 6.7115625 19.25976562 7.078125 C24.87106199 9.74212398 24.87106199 9.74212398 26 12 C19.84765625 11.4140625 19.84765625 11.4140625 18 11 C17.67 10.34 17.34 9.68 17 9 C15.11732556 7.93738621 13.19300583 6.94780772 11.25 6 C10.20328125 5.484375 9.1565625 4.96875 8.078125 4.4375 C5.41310545 3.19292234 2.74379273 2.05686831 0 1 C0 0.67 0 0.34 0 0 Z " fill="#979797" transform="translate(237,80)"/>
<path d="M0 0 C0.99 0.66 1.98 1.32 3 2 C3.30545856 4.69821725 3.41818928 7.11796867 3.375 9.8125 C3.38660156 10.52470703 3.39820313 11.23691406 3.41015625 11.97070312 C3.37490419 18.32194963 1.59678343 21.32894757 -2.6875 25.8125 C-3.450625 26.534375 -4.21375 27.25625 -5 28 C-5.99 27.67 -6.98 27.34 -8 27 C-7.51789063 26.63648438 -7.03578125 26.27296875 -6.5390625 25.8984375 C-2.42635962 22.62506174 0.0693046 20.3773512 1 15 C1.29476136 9.91536659 1.32113039 4.95423898 0 0 Z " fill="#8C8C8C" transform="translate(459,159)"/>
<path d="M0 0 C-3.20380017 2.13586678 -4.01939967 2.23132175 -7.6875 2.125 C-8.49574219 2.10695312 -9.30398438 2.08890625 -10.13671875 2.0703125 C-11.05904297 2.03550781 -11.05904297 2.03550781 -12 2 C-12 2.66 -12 3.32 -12 4 C-17.61 4 -23.22 4 -29 4 C-29 3.67 -29 3.34 -29 3 C-28.38479492 2.91435791 -27.76958984 2.82871582 -27.13574219 2.74047852 C-24.34017963 2.35003829 -21.54509064 1.95630373 -18.75 1.5625 C-17.78191406 1.42779297 -16.81382812 1.29308594 -15.81640625 1.15429688 C-14.88183594 1.02216797 -13.94726562 0.89003906 -12.984375 0.75390625 C-11.69611816 0.57323608 -11.69611816 0.57323608 -10.38183594 0.38891602 C-8.01946774 0.04258277 -8.01946774 0.04258277 -5.82910156 -0.57446289 C-3.59596981 -1.09399688 -2.15762828 -0.69352338 0 0 Z " fill="#3F3F3F" transform="translate(421,200)"/>
<path d="M0 0 C-7.4129569 4.19069772 -16.68334347 4.27722188 -25 4 C-25 3.67 -25 3.34 -25 3 C-22.69 3 -20.38 3 -18 3 C-18 2.34 -18 1.68 -18 1 C-11.97968656 0.39034801 -6.05329744 -0.13451772 0 0 Z " fill="#666666" transform="translate(373,237)"/>
<path d="M0 0 C0.33 0.99 0.66 1.98 1 3 C0.67 3.66 0.34 4.32 0 5 C-0.66 5 -1.32 5 -2 5 C-2.33 6.32 -2.66 7.64 -3 9 C-4.65 9.33 -6.3 9.66 -8 10 C-8 8.35 -8 6.7 -8 5 C-7.05125 4.54625 -6.1025 4.0925 -5.125 3.625 C-1.99686321 2.19761746 -1.99686321 2.19761746 0 0 Z " fill="#4D4D4D" transform="translate(447,137)"/>
<path d="M0 0 C4.63831546 0.64025827 8.83433846 1.82482095 13.25 3.375 C14.47203125 3.79523438 15.6940625 4.21546875 16.953125 4.6484375 C20 6 20 6 22 9 C17.06678166 8.29807915 12.74025318 6.36469225 8.1875 4.4375 C7.00510742 3.9434668 7.00510742 3.9434668 5.79882812 3.43945312 C3.86416204 2.63041094 1.93184247 1.81576148 0 1 C0 0.67 0 0.34 0 0 Z " fill="#9F9F9F" transform="translate(202,215)"/>
<path d="M0 0 C1.95825873 -0.02694851 3.91662226 -0.04637218 5.875 -0.0625 C6.96554687 -0.07410156 8.05609375 -0.08570313 9.1796875 -0.09765625 C12 0 12 0 14 1 C15.70363822 1.22622081 17.41328701 1.40888473 19.125 1.5625 C20.03507812 1.64628906 20.94515625 1.73007813 21.8828125 1.81640625 C22.58148438 1.87699219 23.28015625 1.93757812 24 2 C24 2.66 24 3.32 24 4 C24.66 4.33 25.32 4.66 26 5 C21.94105614 4.56511316 18.06430292 4.07727876 14.125 3 C9.47618239 1.75908056 4.78549109 1.3726407 0 1 C0 0.67 0 0.34 0 0 Z " fill="#404040" transform="translate(301,184)"/>
<path d="M0 0 C3.14581423 -0.02888514 6.29159469 -0.04675923 9.4375 -0.0625 C10.33533203 -0.07087891 11.23316406 -0.07925781 12.15820312 -0.08789062 C13.01220703 -0.09111328 13.86621094 -0.09433594 14.74609375 -0.09765625 C15.93223267 -0.10551147 15.93223267 -0.10551147 17.14233398 -0.11352539 C19 0 19 0 20 1 C22.18292774 1.23481693 24.37203174 1.41363323 26.5625 1.5625 C27.76003906 1.64628906 28.95757812 1.73007813 30.19140625 1.81640625 C31.11824219 1.87699219 32.04507813 1.93757812 33 2 C33 2.33 33 2.66 33 3 C30.54159395 3.02691685 28.08348118 3.04679802 25.625 3.0625 C24.92632812 3.07087891 24.22765625 3.07925781 23.5078125 3.08789062 C18.2265625 3.11328125 18.2265625 3.11328125 16 2 C13.28737884 1.7677354 10.59226874 1.58063765 7.875 1.4375 C7.12089844 1.39431641 6.36679687 1.35113281 5.58984375 1.30664062 C3.72678112 1.2005168 1.86341476 1.09974999 0 1 C0 0.67 0 0.34 0 0 Z " fill="#434343" transform="translate(398,147)"/>
<path d="M0 0 C3.53644012 0.68232492 6.30268991 2.12715859 9.4375 3.875 C10.36433594 4.38804688 11.29117187 4.90109375 12.24609375 5.4296875 C14.85408368 6.91679665 17.4327461 8.44380617 20 10 C19.01 10.495 19.01 10.495 18 11 C12.31618917 8.98698366 2.76918333 5.53836667 0 0 Z " fill="#939393" transform="translate(263,92)"/>
<path d="M0 0 C1.65 0 3.3 0 5 0 C5 0.66 5 1.32 5 2 C5.99 2.0825 6.98 2.165 8 2.25 C12.47456948 2.86308007 16.09570685 4.81968045 20 7 C16.24879123 8.21771265 14.44840339 7.51840246 10.8828125 5.8359375 C8.00168226 4.55676349 5.0435102 3.80746189 2 3 C2 2.34 2 1.68 2 1 C1.34 0.67 0.68 0.34 0 0 Z " fill="#8D8D8D" transform="translate(163,200)"/>
<path d="M0 0 C0.66 0.33 1.32 0.66 2 1 C-3.03034386 6.23566402 -7.92929095 10.99591531 -14 15 C-14.66 14.67 -15.32 14.34 -16 14 C-8 7 -8 7 0 0 Z " fill="#979797" transform="translate(462,189)"/>
<path d="M0 0 C0.33 0.66 0.66 1.32 1 2 C-0.07421875 4.2421875 -0.07421875 4.2421875 -1.6875 6.875 C-2.20699219 7.73867187 -2.72648437 8.60234375 -3.26171875 9.4921875 C-4.97507254 11.96403723 -6.80958795 13.94798 -9 16 C-8.67 14.35 -8.34 12.7 -8 11 C-7.01 10.67 -6.02 10.34 -5 10 C-4.9175 8.72125 -4.835 7.4425 -4.75 6.125 C-4.48828125 3.9140625 -4.48828125 3.9140625 -4 2 C-1.9375 0.5 -1.9375 0.5 0 0 Z " fill="#828282" transform="translate(503,134)"/>
<path d="M0 0 C2.328125 1.52734375 2.328125 1.52734375 4 3 C3.67 3.66 3.34 4.32 3 5 C2.34 4.505 1.68 4.01 1 3.5 C-2.80246254 1.59876873 -5.81778659 1.32846573 -10 2 C-11.68991979 2.9601817 -13.36209288 3.95355934 -15 5 C-17.140625 4.58984375 -17.140625 4.58984375 -19 4 C-12.76590473 0.23601795 -7.30810448 -1.2596267 0 0 Z " fill="#A9A9A9" transform="translate(519,67)"/>
<path d="M0 0 C0 4.17954642 -2.15134596 6.74859279 -4.375 10.125 C-4.7875 10.77082031 -5.2 11.41664063 -5.625 12.08203125 C-8.73507861 16.86753931 -8.73507861 16.86753931 -11 18 C-10.39224549 14.67217346 -9.22123437 12.69582925 -7.125 10.0625 C-4.85202956 7.14088812 -2.84989934 4.21298306 -1 1 C-0.67 0.67 -0.34 0.34 0 0 Z " fill="#9A9A9A" transform="translate(493,150)"/>
<path d="M0 0 C-1.65167557 3.5786304 -3.78286492 6.74820188 -6 10 C-7.32 9.34 -8.64 8.68 -10 8 C-8.90653119 6.65787938 -7.7998425 5.32652025 -6.6875 4 C-5.76517578 2.88625 -5.76517578 2.88625 -4.82421875 1.75 C-3 0 -3 0 0 0 Z " fill="#1A1A1A" transform="translate(488,73)"/>
<path d="M0 0 C-1.56305491 1.56305491 -3.27678218 1.30639968 -5.4375 1.5 C-8.84497505 1.79146944 -8.84497505 1.79146944 -12 3 C-14.3329866 3.04022391 -16.66706666 3.04320247 -19 3 C-19 2.34 -19 1.68 -19 1 C-15.74867031 -0.08377656 -12.91392439 -0.35588434 -9.5 -0.625 C-8.3553125 -0.72039062 -7.210625 -0.81578125 -6.03125 -0.9140625 C-3 -1 -3 -1 0 0 Z " fill="#8F8F8F" transform="translate(360,241)"/>
<path d="M0 0 C17.34042553 -0.76595745 17.34042553 -0.76595745 25 4 C21.60381958 5.13206014 21.25575195 4.91274325 18.125 3.625 C12.2133348 1.48507491 6.23510382 1.27947142 0 1 C0 0.67 0 0.34 0 0 Z " fill="#9B9B9B" transform="translate(418,148)"/>
<path d="M0 0 C1 3 1 3 0.37915039 4.80932617 C0.03875732 5.46392822 -0.30163574 6.11853027 -0.65234375 6.79296875 C-1.01650391 7.50517578 -1.38066406 8.21738281 -1.75585938 8.95117188 C-2.14580078 9.68916016 -2.53574219 10.42714844 -2.9375 11.1875 C-3.51661133 12.31188477 -3.51661133 12.31188477 -4.10742188 13.45898438 C-5.06271757 15.31060689 -6.03021577 17.15592452 -7 19 C-8 17 -8 17 -7.36328125 14.86328125 C-5.22217915 9.66573601 -2.92374657 4.80329794 0 0 Z " fill="#9D9D9D" transform="translate(520,100)"/>
<path d="M0 0 C3.75345656 0.71971619 6.86091969 2.33112202 10.25 4.0625 C11.32765625 4.61035156 12.4053125 5.15820312 13.515625 5.72265625 C14.74539063 6.35494141 14.74539063 6.35494141 16 7 C13 8 13 8 10.1875 6.625 C9.135625 6.08875 8.08375 5.5525 7 5 C3.7633037 4.29241674 3.7633037 4.29241674 1 4 C0.67 2.68 0.34 1.36 0 0 Z " fill="#888888" transform="translate(323,126)"/>
<path d="M0 0 C0.54140625 0.24621094 1.0828125 0.49242188 1.640625 0.74609375 C-2.54089373 3.84041761 -6.53015683 6.72456056 -11.359375 8.74609375 C-12.019375 8.41609375 -12.679375 8.08609375 -13.359375 7.74609375 C-11.62132159 6.37662753 -9.86846267 5.02593421 -8.109375 3.68359375 C-7.13484375 2.92949219 -6.1603125 2.17539063 -5.15625 1.3984375 C-2.359375 -0.25390625 -2.359375 -0.25390625 0 0 Z " fill="#888888" transform="translate(136.359375,90.25390625)"/>
<path d="M0 0 C0.66 0.33 1.32 0.66 2 1 C0.13104855 2.30040311 -1.74545388 3.58995752 -3.625 4.875 C-4.66914063 5.59429687 -5.71328125 6.31359375 -6.7890625 7.0546875 C-9.83744008 8.90151479 -12.58596974 10.0260274 -16 11 C-12.94900596 7.67633258 -9.76550484 5.45775774 -5.875 3.1875 C-4.82054687 2.56230469 -3.76609375 1.93710938 -2.6796875 1.29296875 C-1.35324219 0.65294922 -1.35324219 0.65294922 0 0 Z " fill="#979797" transform="translate(444,204)"/>
<path d="M0 0 C3.91114026 0.67400718 6.87119182 2.54256033 10.25 4.5625 C11.32765625 5.20316406 12.4053125 5.84382813 13.515625 6.50390625 C14.33546875 6.99761719 15.1553125 7.49132812 16 8 C12.98968256 8.93423645 12.13349732 9.04449911 9 8 C7.66666667 6.66666667 6.33333333 5.33333333 5 4 C3.34338239 2.98343919 1.67888441 1.97934924 0 1 C0 0.67 0 0.34 0 0 Z " fill="#969696" transform="translate(295,110)"/>
<path d="M0 0 C1.4800841 0.11362262 2.95910074 0.24122908 4.4375 0.375 C5.26121094 0.44460937 6.08492187 0.51421875 6.93359375 0.5859375 C7.95646484 0.79089844 7.95646484 0.79089844 9 1 C9.33 1.66 9.66 2.32 10 3 C12.30965848 4.05352843 14.6429774 5.05719096 17 6 C14.64282126 6.82422508 13.42200179 7.15185353 11.03515625 6.29296875 C10.05869141 5.74576172 10.05869141 5.74576172 9.0625 5.1875 C6.09319833 3.58352209 3.16668417 2.18750656 0 1 C0 0.67 0 0.34 0 0 Z " fill="#909090" transform="translate(224,224)"/>
<path d="M0 0 C5.28 0 10.56 0 16 0 C16 0.33 16 0.66 16 1 C10.39 1.66 4.78 2.32 -1 3 C-0.67 2.01 -0.34 1.02 0 0 Z " fill="#373737" transform="translate(87,193)"/>
<path d="M0 0 C0.66 0 1.32 0 2 0 C1.31238981 3.65564909 -0.25449545 6.51867272 -2.0625 9.75 C-2.61035156 10.73484375 -3.15820312 11.7196875 -3.72265625 12.734375 C-4.14417969 13.48203125 -4.56570313 14.2296875 -5 15 C-6 12 -6 12 -4.6875 9.125 C-4.130625 8.09375 -3.57375 7.0625 -3 6 C-2.62875 5.071875 -2.2575 4.14375 -1.875 3.1875 C-1 1 -1 1 0 0 Z " fill="#909090" transform="translate(510,119)"/>
<path d="M0 0 C0.33 0.99 0.66 1.98 1 3 C0.04060332 4.69036558 -0.96642853 6.35394174 -2 8 C-2.33 8.99 -2.66 9.98 -3 11 C-3.99699212 13.99097637 -5.29295795 16.36184411 -7 19 C-7.33 18.34 -7.66 17.68 -8 17 C-7.13699144 14.62304468 -6.21874447 12.3647591 -5.1875 10.0625 C-4.91357422 9.42892578 -4.63964844 8.79535156 -4.35742188 8.14257812 C-3.0829611 5.23607405 -1.76523367 2.64785051 0 0 Z " fill="#A2A2A2" transform="translate(472,89)"/>
<path d="M0 0 C1.32 0 2.64 0 4 0 C4.54330269 6.65545792 3.77304004 10.45834744 0 16 C-1.24752897 12.25741309 -0.5279335 11.53837233 1 8 C1.68679942 5.67251306 2.35761043 3.34013344 3 1 C2.01 1.33 1.02 1.66 0 2 C0 1.34 0 0.68 0 0 Z " fill="#979797" transform="translate(461,89)"/>
<path d="M0 0 C0.66 0.33 1.32 0.66 2 1 C0.06891037 2.03290841 -1.870118 3.05098672 -3.8125 4.0625 C-4.89144531 4.63097656 -5.97039062 5.19945312 -7.08203125 5.78515625 C-10 7 -10 7 -13 6 C-10.82428858 2.73643287 -10.61908311 2.60353658 -7.0625 1.875 C-4.61774134 1.35406077 -2.38337571 0.79445857 0 0 Z " fill="#919191" transform="translate(426,215)"/>
<path d="M0 0 C6.37270066 1.12459423 12.10875453 3.40785199 18 6 C16 7 16 7 14.08203125 6.546875 C9.29925769 4.86755347 4.62884702 3.06820824 0 1 C0 0.67 0 0.34 0 0 Z " fill="#313131" transform="translate(172,202)"/>
<path d="M0 0 C6.65050424 -0.24991456 12.56986533 0.26044666 19 2 C19 2.33 19 2.66 19 3 C12.29481414 3.19818283 6.34823202 3.30844801 0 1 C0 0.67 0 0.34 0 0 Z " fill="#414141" transform="translate(345,201)"/>
<path d="M0 0 C-2.26708325 0.8655047 -4.53775079 1.71759315 -6.8125 2.5625 C-7.77639648 2.9327832 -7.77639648 2.9327832 -8.75976562 3.31054688 C-13.66015625 5.11328125 -13.66015625 5.11328125 -17 4 C-12.54893918 -0.25753644 -5.84870929 -1.86095295 0 0 Z " fill="#787878" transform="translate(82,197)"/>
<path d="M0 0 C1.98 0 3.96 0 6 0 C5.01 0.33 4.02 0.66 3 1 C2.67 1.99 2.34 2.98 2 4 C-1.63 4.33 -5.26 4.66 -9 5 C-8.67 4.34 -8.34 3.68 -8 3 C-5.66666667 2.66666667 -3.33333333 2.33333333 -1 2 C-0.67 1.34 -0.34 0.68 0 0 Z " fill="#585858" transform="translate(432,186)"/>
<path d="M0 0 C-2.96162086 1.62477811 -5.69266927 2.51695886 -9 3.1875 C-9.845625 3.36667969 -10.69125 3.54585937 -11.5625 3.73046875 C-14.03021411 4.00334098 -15.65849506 3.76424119 -18 3 C-11.88595404 1.14256832 -6.41481258 -0.42765417 0 0 Z " fill="#979797" transform="translate(431,196)"/>
<path d="M0 0 C0.95465783 2.16967689 1.14401212 3.56328793 0.3984375 5.82421875 C-0.35870385 7.5684743 -1.17609198 9.28627131 -2 11 C-2.99 11 -3.98 11 -5 11 C-3.77472971 6.94718288 -2.30119506 3.55639236 0 0 Z " fill="#868686" transform="translate(458,94)"/>
<path d="M0 0 C0.33 0 0.66 0 1 0 C1.36629408 4.27343092 0.40814077 6.48812804 -2 10 C-2.66 9.67 -3.32 9.34 -4 9 C-4 8.01 -4 7.02 -4 6 C-3.34 6 -2.68 6 -2 6 C-1.855625 5.195625 -1.71125 4.39125 -1.5625 3.5625 C-1 1 -1 1 0 0 Z " fill="#070707" transform="translate(469,103)"/>
<path d="M0 0 C1.485 0.99 1.485 0.99 3 2 C3.29296875 5.2578125 3.29296875 5.2578125 3.1875 9.125 C3.16042969 10.40632812 3.13335937 11.68765625 3.10546875 13.0078125 C3.07066406 13.99523437 3.03585937 14.98265625 3 16 C2.34 16.33 1.68 16.66 1 17 C1.01740234 15.78763672 1.01740234 15.78763672 1.03515625 14.55078125 C1.04417969 13.48214844 1.05320312 12.41351563 1.0625 11.3125 C1.07410156 10.25675781 1.08570313 9.20101562 1.09765625 8.11328125 C1.00865425 5.27589738 0.64939838 2.7561081 0 0 Z " fill="#A0A0A0" transform="translate(459,159)"/>
<path d="M0 0 C1.60568666 0.28317926 3.20952047 0.57687791 4.8125 0.875 C6.15248047 1.11863281 6.15248047 1.11863281 7.51953125 1.3671875 C10 2 10 2 13 4 C10.36 4 7.72 4 5 4 C5 3.34 5 2.68 5 2 C3.35 1.67 1.7 1.34 0 1 C0 0.67 0 0.34 0 0 Z " fill="#777777" transform="translate(352,141)"/>
<path d="M0 0 C0 1.98 0 3.96 0 6 C-0.66 5.34 -1.32 4.68 -2 4 C-2.99 5.32 -3.98 6.64 -5 8 C-5.1875 5.125 -5.1875 5.125 -5 2 C-2 0 -2 0 0 0 Z " fill="#434343" transform="translate(464,90)"/>
<path d="M0 0 C4.46839215 -0.21278058 7.82262526 0.40861915 12 2 C12 2.33 12 2.66 12 3 C10.56344146 3.08131463 9.1255517 3.13933559 7.6875 3.1875 C6.48673828 3.23970703 6.48673828 3.23970703 5.26171875 3.29296875 C2.52148416 2.93801608 1.70828921 2.10633718 0 0 Z " fill="#363636" transform="translate(293,190)"/>
<path d="M0 0 C0.640625 1.8359375 0.640625 1.8359375 1 4 C-1.46026571 6.87030999 -3.85489214 8.90326143 -7 11 C-5.22054913 6.95579349 -2.60470327 3.53921513 0 0 Z " fill="#949494" transform="translate(460,134)"/>
<path d="M0 0 C5.53846154 0.61538462 5.53846154 0.61538462 7.875 2.5625 C8.431875 3.2740625 8.431875 3.2740625 9 4 C6.36 3.67 3.72 3.34 1 3 C0.67 2.01 0.34 1.02 0 0 Z " fill="#7F7F7F" transform="translate(254,88)"/>
<path d="M0 0 C-1.26607607 0.53229326 -2.53810412 1.05044544 -3.8125 1.5625 C-4.52019531 1.85253906 -5.22789062 2.14257812 -5.95703125 2.44140625 C-8 3 -8 3 -11 2 C-7.75267347 -1.24732653 -4.25451414 -1.41817138 0 0 Z " fill="#979797" transform="translate(384,234)"/>
<path d="M0 0 C1.98 0 3.96 0 6 0 C6 0.99 6 1.98 6 3 C4.02 3 2.04 3 0 3 C0 2.01 0 1.02 0 0 Z " fill="#A2A2A2" transform="translate(258,187)"/>
<path d="M0 0 C2.64 0 5.28 0 8 0 C8 0.66 8 1.32 8 2 C8.66 2.33 9.32 2.66 10 3 C2.25 2.25 2.25 2.25 0 0 Z " fill="#343434" transform="translate(317,186)"/>
<path d="M0 0 C0.33 0.66 0.66 1.32 1 2 C-0.65 4.31 -2.3 6.62 -4 9 C-4 5.76138705 -3.3749149 3.90259811 -2 1 C-1.34 0.67 -0.68 0.34 0 0 Z " fill="#5D5D5D" transform="translate(93,130)"/>
</svg>
